<?xml version="1.0" encoding="utf-8"?>
<!-- Generator: Adobe Illustrator 23.0.4, SVG Export Plug-In . SVG Version: 6.00 Build 0)  -->
<svg version="1.1" id="Layer_1" xmlns="http://www.w3.org/2000/svg" xmlns:xlink="http://www.w3.org/1999/xlink" x="0px" y="0px"
	 viewBox="0 0 1024 1024" style="enable-background:new 0 0 1024 1024;" xml:space="preserve">
<style type="text/css">
	.st0{fill:#55AF64;}
	.st1{fill:#FFD12D;}
	.st2{fill:#FFB900;}
	.st3{fill:#FFE655;}
	.st4{stroke:#000000;stroke-width:18.2761;stroke-miterlimit:10;}
	.st5{fill:#BE4B55;}
	.st6{clip-path:url(#SVGID_2_);fill:#F5F5F5;}
	.st7{clip-path:url(#SVGID_2_);fill:#55AF64;}
	.st8{clip-path:url(#SVGID_2_);}
	.st9{stroke:#000000;stroke-width:14.2124;stroke-miterlimit:10;}
	.st10{clip-path:url(#SVGID_5_);fill:#F5F5F5;}
	.st11{clip-path:url(#SVGID_5_);fill:#55AF64;}
	.st12{fill:#FFFFFF;}
	.st13{stroke:#000000;stroke-width:4.9335;stroke-miterlimit:10;}
	.st14{clip-path:url(#SVGID_8_);fill:#F5F5F5;}
	.st15{clip-path:url(#SVGID_8_);fill:#55AF64;}
	.st16{clip-path:url(#SVGID_8_);}
	.st17{clip-path:url(#SVGID_8_);fill:#FFFFFF;stroke:#B2B3B6;stroke-miterlimit:10;}
	.st18{clip-path:url(#SVGID_8_);fill:#55AF64;stroke:#B2B3B6;stroke-miterlimit:10;}
	.st19{clip-path:url(#SVGID_8_);fill:none;}
</style>
<g>
	<rect x="-1480.3" class="st0" width="1024" height="1024"/>
	<g>
		<g>
			<path class="st1" d="M-600.4,437.5c0-35.1-4.2-69.2-11.7-102.1c-21.8-47.2-52-89.1-88.5-124.1c-67-41.6-145.9-64.2-229.6-60.8
				c-230.8,8.7-411.4,210-402.7,449.9c1.2,35.1,6.6,68.9,15.2,101.5c18.8,37.2,43.1,71.1,71.5,100.5
				c65.5,44.1,143.5,69.5,227.2,69.5C-787.9,871.9-600.4,677.4-600.4,437.5z"/>
			<path class="st2" d="M-612,335.4c7.5,32.9,11.7,67,11.7,102.1c0,239.9-187.5,434.4-418.6,434.4c-83.7,0-161.8-25.8-227.2-69.5
				c71.5,73.5,169.8,119.2,278.1,119.2c217.7,0,394.7-183.7,394.7-409.6C-573.5,448.7-587.2,388.8-612,335.4z"/>
			<path class="st3" d="M-929.9,150.5c83.7-3.1,162.7,19.5,229.6,60.8c-70.6-67.6-164.8-108.9-267.9-108.9
				c-217.7,0-394.7,183.7-394.7,409.6c0,68.3,16.1,132.8,44.9,189.6c-8.7-32.3-14.1-66.4-15.2-101.5
				C-1341.6,360.5-1161,159.2-929.9,150.5z"/>
			<g>
				<g>
					<path class="st4" d="M-1092.8,375.4l-64-31.3c-3.6-1.9-6-3.4-7.5-5.3s-2.1-4-2.1-6.2c0-2.8,0.9-5.3,2.4-6.8
						c1.5-1.9,3.9-2.8,6.6-2.8c0.9,0,2.1,0.3,3.6,0.6c1.2,0.3,3.3,1.2,5.7,2.5l77.4,37.5l0.9,0.6c7.2,3.4,10.8,7.4,10.8,12.1
						s-3.6,8.4-10.5,11.8c-0.6,0.3-1.2,0.6-1.5,0.9l-77.4,36.9c-2.1,0.9-3.6,1.6-5.1,2.2c-1.5,0.3-2.7,0.6-3.9,0.6
						c-2.7,0-4.8-0.9-6.6-2.5c-1.5-1.9-2.4-4-2.4-6.8c0-2.5,0.6-4.7,2.1-6.2c1.5-1.9,3.9-3.4,7.5-5.3L-1092.8,375.4z"/>
				</g>
				<g>
					<path class="st4" d="M-843.5,375.4l63.7,31.3c3.6,1.9,6,3.4,7.5,5.3s2.1,4,2.1,6.2c0,2.8-0.9,5.3-2.4,6.8
						c-1.5,1.9-3.9,2.8-6.6,2.8c-0.9,0-2.1-0.3-3.6-0.6c-1.2-0.3-3.3-1.2-5.7-2.5l-77.4-37.5l-0.9-0.6c-7.2-3.4-10.8-7.4-10.8-12.1
						s3.6-8.4,10.5-11.8c0.6-0.3,1.2-0.6,1.5-0.9l77.4-36.9c2.1-0.9,3.6-1.6,5.1-2.2c1.5-0.3,2.7-0.6,3.9-0.6c2.7,0,4.8,0.9,6.6,2.5
						c1.5,1.9,2.4,4,2.4,6.8c0,2.5-0.6,4.7-2.1,6.2c-1.5,1.9-3.9,3.4-7.5,5.3L-843.5,375.4z"/>
				</g>
			</g>
			<g>
				<g>
					<path d="M-1132.9,627.1h330.1v-41c0-6.2,1.8-10.9,5.4-14.3c3.6-3.4,8.7-5,15.2-5c6.6,0,11.7,1.6,15.2,5
						c3.6,3.4,5.4,7.8,5.4,13.7v84.7c0,6.5-1.8,11.8-5.1,15.8c-3.3,4-7.5,6.2-12.6,6.2h-378.1c-5.1,0-9-2.2-12.6-6.2
						c-3.3-4-5.1-9.3-5.1-15.8v-84.7c0-5.9,1.8-10.6,5.4-13.7c3.6-3.4,8.7-5,15.2-5c6.6,0,11.7,1.6,15.5,5c3.9,3.4,5.7,8.1,5.7,14.3
						L-1132.9,627.1L-1132.9,627.1z"/>
				</g>
				<g>
					<path class="st5" d="M-969,804c-35,0-63.4-29.5-63.4-65.8v-67l19.7,4c4.5,0.9,10.2,1.9,16.4,2.5c8.7,0.9,17.9,1.6,26.9,1.6
						c15.5,0,31.4-1.6,43.7-4.3l20-4.7v68.3C-906,774.8-934.1,804-969,804z"/>
					<path d="M-922.4,692v46.5c0,26.7-20.9,48.4-46.6,48.4s-46.6-21.7-46.6-48.4v-46.2c5.4,1.2,12,2.2,17.6,2.8
						c9.6,1.2,19.1,1.6,28.7,1.6C-953.5,696.9-936.2,695.1-922.4,692 M-889.2,649.4l-40.1,9c-10.8,2.5-26,4-40.1,4
						c-8.4,0-16.7-0.6-24.8-1.6c-5.7-0.6-11.1-1.6-15-2.5l-39.5-8.1v41.9v46.2c0,45.6,35.9,82.9,79.8,82.9s79.8-37.2,79.8-82.9
						v-46.5v-42.5L-889.2,649.4L-889.2,649.4z"/>
				</g>
				<rect x="-1132.9" y="547" class="st1" width="330.1" height="99.3"/>
			</g>
		</g>
		<g>
			<path d="M-1196,143c6,0,10.8,2.2,15,6.5c4.2,4.3,6.3,9.6,6.3,15.8c0,6.5-6.9,22-20.9,46.9c-10.2,17.7-18.2,32.3-24.2,43.8
				c-23.9,45-41,88.1-51.4,129.1c-10.5,41-15.8,83.5-15.8,127.2c0,39.4,4.2,77.6,12.6,115.1c8.4,37.2,21.5,74.5,38.9,111.4
				c9.3,19.2,21.8,42.2,37.4,69.8c15.5,27.3,23.3,44.4,23.3,51.2c0,6.2-2.1,11.2-6,15.2s-8.7,6.2-13.8,6.2
				c-11.4,0-24.5-5.3-39.8-15.5c-15-10.2-31.1-25.4-48.4-45c-39.8-45.6-69.7-94.6-90-146.5c-20.3-51.8-30.5-105.8-30.5-161.7
				c0-50.9,8.4-99.9,24.8-147.1c17-47.2,42.2-92.5,75.3-135.9c21.5-27.9,41.6-49.3,60.1-64.2S-1208.8,143-1196,143z"/>
			<path d="M-761.8,165.1c0-6.2,2.1-11.2,6.3-15.8c4.2-4.3,9-6.5,14.4-6.5c13.2,0,29,7.4,47.8,22.7c18.8,15.2,39.2,36.3,61,64.2
				c32.9,42.8,57.7,87.8,74.5,135c16.7,47.2,24.8,96.5,24.8,147.7c0,56.2-10.2,109.8-30.2,161.7c-20,51.8-50.2,100.5-89.7,146.5
				c-17,19.2-33.2,34.4-48.7,44.7c-15.5,10.6-29,15.8-40.4,15.8c-5.4,0-9.9-2.2-13.8-6.2c-3.9-4-6-9.3-6-15.2
				c0-6.5,7.2-22,21.5-46.2c10.5-18,18.5-32.6,24.5-43.8c23.6-45.3,40.7-88.7,51.1-129.4c10.5-40.6,15.8-83.5,15.8-127.8
				c0-39.7-4.2-78.2-12.6-115.4c-8.4-37.2-21.5-74.5-38.9-111.4c-9.6-19.9-22.1-43.4-38-70.1C-753.8,188.6-761.8,171.9-761.8,165.1z
				"/>
		</g>
	</g>
</g>
<g>
	
		<image style="overflow:visible;opacity:0.5;" width="1357" height="2567" xlink:href="CA838CE9EC578375.png"  transform="matrix(1 0 0 1 1988.6484 3800.447)">
	</image>
	<g>
		<g>
			<defs>
				<path id="SVGID_15_" d="M3084.2,6279.7h-878.5c-68.4,0-123.8-55.4-123.8-123.8V3967.5c0-68.4,55.4-123.8,123.8-123.8h878.5
					c68.4,0,123.8,55.4,123.8,123.8V6156C3207.9,6224.3,3152.5,6279.7,3084.2,6279.7z"/>
			</defs>
			<clipPath id="SVGID_1_">
				<use xlink:href="#SVGID_15_"  style="overflow:visible;"/>
			</clipPath>
		</g>
		<g>
			<defs>
				<path id="SVGID_17_" d="M3084.2,6279.7h-878.5c-68.4,0-123.8-55.4-123.8-123.8V3967.5c0-68.4,55.4-123.8,123.8-123.8h878.5
					c68.4,0,123.8,55.4,123.8,123.8V6156C3207.9,6224.3,3152.5,6279.7,3084.2,6279.7z"/>
			</defs>
			<clipPath id="SVGID_2_">
				<use xlink:href="#SVGID_17_"  style="overflow:visible;"/>
			</clipPath>
			<rect x="2081.9" y="3843.7" class="st6" width="1126" height="2436"/>
			<path class="st7" d="M3258,5689.8c-99.7,137.1-296.6,32.5-296.6,32.5s-229.8-137.1-487.1,120.2
				c-257.3,257.3-406.7,103.3-406.7,103.3l-35.7-25.1v359.1H3258V5689.8z"/>
			<g class="st8">
				<g>
					<path class="st1" d="M2930.9,4505.8c0-27.3-3.3-53.8-9.1-79.4c-17-36.7-40.4-69.3-68.8-96.5c-52.1-32.4-113.5-49.9-178.5-47.3
						c-179.5,6.8-319.9,163.3-313.2,349.9c0.9,27.3,5.1,53.6,11.8,78.9c14.6,28.9,33.5,55.3,55.6,78.2c50.9,34.3,111.6,54,176.7,54
						C2785.1,4843.6,2930.9,4692.4,2930.9,4505.8z"/>
					<path class="st2" d="M2921.9,4426.4c5.8,25.6,9.1,52.1,9.1,79.4c0,186.6-145.8,337.8-325.5,337.8c-65.1,0-125.8-20.1-176.7-54
						c55.6,57.2,132,92.7,216.3,92.7c169.3,0,306.9-142.9,306.9-318.5C2951.8,4514.5,2941.2,4467.9,2921.9,4426.4z"/>
					<path class="st3" d="M2674.7,4282.6c65.1-2.4,126.5,15.2,178.5,47.3c-54.9-52.6-128.2-84.7-208.3-84.7
						c-169.3,0-306.9,142.9-306.9,318.5c0,53.1,12.5,103.3,34.9,147.4c-6.8-25.1-11-51.6-11.8-78.9
						C2354.5,4445.9,2495,4289.4,2674.7,4282.6z"/>
					<g>
						<g>
							<path class="st9" d="M2548,4457.5l-49.8-24.3c-2.8-1.5-4.7-2.6-5.8-4.1s-1.6-3.1-1.6-4.8c0-2.2,0.7-4.1,1.9-5.3
								c1.2-1.5,3-2.2,5.1-2.2c0.7,0,1.6,0.2,2.8,0.5c0.9,0.2,2.6,0.9,4.4,1.9l60.2,29.2l0.7,0.5c5.6,2.6,8.4,5.8,8.4,9.4
								s-2.8,6.5-8.2,9.2c-0.5,0.2-0.9,0.5-1.2,0.7l-60.2,28.7c-1.6,0.7-2.8,1.2-4,1.7c-1.2,0.2-2.1,0.5-3,0.5
								c-2.1,0-3.7-0.7-5.1-1.9c-1.2-1.5-1.9-3.1-1.9-5.3c0-1.9,0.5-3.7,1.6-4.8c1.2-1.5,3-2.6,5.8-4.1L2548,4457.5z"/>
						</g>
						<g>
							<path class="st9" d="M2741.9,4457.5l49.5,24.3c2.8,1.5,4.7,2.6,5.8,4.1s1.6,3.1,1.6,4.8c0,2.2-0.7,4.1-1.9,5.3
								c-1.2,1.5-3,2.2-5.1,2.2c-0.7,0-1.6-0.2-2.8-0.5c-0.9-0.2-2.6-0.9-4.4-1.9l-60.2-29.2l-0.7-0.5c-5.6-2.6-8.4-5.8-8.4-9.4
								s2.8-6.5,8.2-9.2c0.5-0.2,0.9-0.5,1.2-0.7l60.2-28.7c1.6-0.7,2.8-1.2,4-1.7c1.2-0.2,2.1-0.5,3-0.5c2.1,0,3.7,0.7,5.1,1.9
								c1.2,1.5,1.9,3.1,1.9,5.3c0,1.9-0.5,3.7-1.6,4.8c-1.2,1.5-3,2.6-5.8,4.1L2741.9,4457.5z"/>
						</g>
					</g>
					<g>
						<g>
							<path d="M2516.8,4653.3h256.7v-31.9c0-4.8,1.4-8.5,4.2-11.1c2.8-2.6,6.8-3.9,11.8-3.9c5.1,0,9.1,1.2,11.8,3.9
								c2.8,2.6,4.2,6.1,4.2,10.7v65.9c0,5.1-1.4,9.2-4,12.3c-2.6,3.1-5.8,4.8-9.8,4.8h-294c-4,0-7-1.7-9.8-4.8
								c-2.6-3.1-4-7.2-4-12.3v-65.9c0-4.6,1.4-8.2,4.2-10.7c2.8-2.6,6.8-3.9,11.8-3.9c5.1,0,9.1,1.2,12.1,3.9
								c3,2.6,4.4,6.3,4.4,11.1L2516.8,4653.3L2516.8,4653.3z"/>
						</g>
						<g>
							<path class="st5" d="M2644.3,4790.8c-27.2,0-49.3-22.9-49.3-51.2v-52.1l15.3,3.1c3.5,0.7,7.9,1.5,12.8,1.9
								c6.8,0.7,13.9,1.2,20.9,1.2c12.1,0,24.4-1.2,34-3.3l15.6-3.7v53.1C2693.3,4768.1,2671.4,4790.8,2644.3,4790.8z"/>
							<path d="M2680.5,4703.7v36.2c0,20.8-16.3,37.6-36.2,37.6c-20,0-36.2-16.9-36.2-37.6V4704c4.2,0.9,9.3,1.7,13.7,2.2
								c7.5,0.9,14.9,1.2,22.3,1.2C2656.3,4707.5,2669.8,4706.1,2680.5,4703.7 M2706.3,4670.6l-31.2,7c-8.4,1.9-20.2,3.1-31.2,3.1
								c-6.5,0-13-0.5-19.3-1.2c-4.4-0.5-8.6-1.2-11.7-1.9l-30.7-6.3v32.6v35.9c0,35.5,27.9,64.5,62.1,64.5
								c34.1,0,62.1-28.9,62.1-64.5v-36.2L2706.3,4670.6L2706.3,4670.6L2706.3,4670.6z"/>
						</g>
						<rect x="2516.8" y="4591" class="st1" width="256.7" height="77.2"/>
					</g>
				</g>
				<g>
					<path d="M2467.8,4276.8c4.7,0,8.4,1.7,11.7,5.1s4.9,7.5,4.9,12.3c0,5.1-5.4,17.1-16.3,36.5c-7.9,13.8-14.2,25.1-18.8,34.1
						c-18.6,35-31.9,68.5-40,100.4c-8.2,31.9-12.3,64.9-12.3,98.9c0,30.6,3.3,60.3,9.8,89.5c6.5,28.9,16.7,57.9,30.3,86.6
						c7.2,14.9,17,32.8,29.1,54.3c12.1,21.2,18.1,34.5,18.1,39.8c0,4.8-1.6,8.7-4.7,11.8c-3,3.1-6.8,4.8-10.7,4.8
						c-8.9,0-19.1-4.1-31-12.1c-11.7-7.9-24.2-19.8-37.6-35c-31-35.5-54.2-73.6-70-113.9c-15.8-40.3-23.7-82.3-23.7-125.7
						c0-39.6,6.5-77.7,19.3-114.4c13.2-36.7,32.8-71.9,58.6-105.7c16.7-21.7,32.4-38.3,46.7-49.9
						C2445.5,4282.5,2457.8,4276.8,2467.8,4276.8z"/>
					<path d="M2805.4,4294c0-4.8,1.6-8.7,4.9-12.3c3.3-3.3,7-5.1,11.2-5.1c10.3,0,22.6,5.8,37.2,17.7c14.6,11.8,30.5,28.2,47.4,49.9
						c25.6,33.3,44.9,68.3,57.9,105c13,36.7,19.3,75,19.3,114.9c0,43.7-7.9,85.4-23.5,125.7c-15.6,40.3-39,78.2-69.8,113.9
						c-13.2,14.9-25.8,26.8-37.9,34.8c-12.1,8.2-22.6,12.3-31.4,12.3c-4.2,0-7.7-1.7-10.7-4.8c-3-3.1-4.7-7.2-4.7-11.8
						c0-5.1,5.6-17.1,16.7-35.9c8.2-14,14.4-25.4,19.1-34.1c18.4-35.2,31.7-69,39.7-100.6c8.2-31.6,12.3-64.9,12.3-99.4
						c0-30.9-3.3-60.8-9.8-89.7c-6.5-28.9-16.7-57.9-30.3-86.6c-7.5-15.5-17.2-33.8-29.6-54.5
						C2811.6,4312.3,2805.4,4299.3,2805.4,4294z"/>
				</g>
			</g>
			<g class="st8">
				<path class="st0" d="M2342.1,5100.6v-117.7h72.3l8.5,10.3v97l-8.4,10.3H2342.1z M2401.7,5003.1h-37v77.3h37V5003.1z"/>
				<path class="st0" d="M2461.9,5003.1v29.1h58.2v19.2h-58.2v29.1h58.2v20.2h-80.8v-117.7h80.8v20.2H2461.9z"/>
				<path class="st0" d="M2596,4982.9h21.2l-25.6,117.7h-27.5l-27.6-117.7h22.6l17.7,90.5L2596,4982.9z"/>
				<path class="st0" d="M2656.3,5080.4h58.2v20.2h-80.8v-117.7h22.6V5080.4z"/>
				<path class="st0" d="M2753.4,5100.6h-22.6v-117.7h22.6V5100.6z"/>
				<path class="st0" d="M2850.6,4982.9v44.6l-9.9,14.7l9.9,14.7v43.7h-80.8v-117.7H2850.6z M2792.4,5003.1v29.1h37v-29.1H2792.4z
					 M2792.4,5051.3v29.1h37v-29.1H2792.4z"/>
				<path class="st0" d="M2867,5051.3v-68.4h80.8v20.2h-58.2v29.1h58.2v68.4H2867v-20.2h59.6v-29.1H2867z"/>
			</g>
		</g>
		<g>
			<defs>
				<path id="SVGID_19_" d="M3084.2,6279.7h-878.5c-68.4,0-123.8-55.4-123.8-123.8V3967.5c0-68.4,55.4-123.8,123.8-123.8h878.5
					c68.4,0,123.8,55.4,123.8,123.8V6156C3207.9,6224.3,3152.5,6279.7,3084.2,6279.7z"/>
			</defs>
			<clipPath id="SVGID_3_">
				<use xlink:href="#SVGID_19_"  style="overflow:visible;"/>
			</clipPath>
		</g>
	</g>
</g>
<g>
	<g>
		
			<image style="overflow:visible;opacity:0.5;" width="1357" height="2567" xlink:href="CA838CE9EC578379.png"  transform="matrix(1 0 0 1 3280.6484 3800.447)">
		</image>
		<g>
			<g>
				<defs>
					<path id="SVGID_21_" d="M4376.5,6279.7H3498c-68.4,0-123.8-55.4-123.8-123.8V3967.5c0-68.4,55.4-123.8,123.8-123.8h878.5
						c68.4,0,123.8,55.4,123.8,123.8V6156C4500.3,6224.3,4444.9,6279.7,4376.5,6279.7z"/>
				</defs>
				<clipPath id="SVGID_4_">
					<use xlink:href="#SVGID_21_"  style="overflow:visible;"/>
				</clipPath>
			</g>
			<g>
				<defs>
					<path id="SVGID_23_" d="M4376.5,6279.7H3498c-68.4,0-123.8-55.4-123.8-123.8V3967.5c0-68.4,55.4-123.8,123.8-123.8h878.5
						c68.4,0,123.8,55.4,123.8,123.8V6156C4500.3,6224.3,4444.9,6279.7,4376.5,6279.7z"/>
				</defs>
				<clipPath id="SVGID_5_">
					<use xlink:href="#SVGID_23_"  style="overflow:visible;"/>
				</clipPath>
				<rect x="3374.3" y="3843.7" class="st10" width="1126" height="2436"/>
				<path class="st11" d="M3324.2,4433.7c99.7-137.1,296.6-32.5,296.6-32.5s229.8,137.1,487.1-120.2s406.7-103.3,406.7-103.3
					l35.7,25.1v-359.1H3324.2V4433.7z"/>
			</g>
			<g>
				<defs>
					<path id="SVGID_25_" d="M4376.5,6279.7H3498c-68.4,0-123.8-55.4-123.8-123.8V3967.5c0-68.4,55.4-123.8,123.8-123.8h878.5
						c68.4,0,123.8,55.4,123.8,123.8V6156C4500.3,6224.3,4444.9,6279.7,4376.5,6279.7z"/>
				</defs>
				<clipPath id="SVGID_6_">
					<use xlink:href="#SVGID_25_"  style="overflow:visible;"/>
				</clipPath>
			</g>
		</g>
	</g>
	<g>
		<rect x="3433.5" y="4712.9" style="fill:none;" width="1007.6" height="132.3"/>
		<text transform="matrix(1 0 0 1 3815.7312 4763.374)" style="font-family:'SquareFont'; font-size:72px;">Sign up</text>
		<g>
			<g>
				<g>
					
						<image style="overflow:visible;opacity:0.25;" width="1000" height="275" xlink:href="CA838CE9EC57837A.png"  transform="matrix(1 0 0 1 3447.9219 4870.7202)">
					</image>
					<g>
						<path class="st12" d="M4354.9,5072h-835.3c-10.7,0-19.4-8.7-19.4-19.4v-109.5c0-10.7,8.7-19.4,19.4-19.4h835.3
							c10.7,0,19.4,8.7,19.4,19.4v109.5C4374.3,5063.3,4365.6,5072,4354.9,5072z"/>
					</g>
				</g>
				<rect x="3529.1" y="4979.6" style="fill:none;" width="772" height="40.4"/>
				<text transform="matrix(1 0 0 1 3529.113 5014.5947)" style="fill:#A6A6A6; font-family:'Avenir-Black'; font-size:46.316px;">Username</text>
			</g>
			<g>
				<g>
					
						<image style="overflow:visible;opacity:0.25;" width="1000" height="274" xlink:href="CA838CE9EC57837B.png"  transform="matrix(1 0 0 1 3447.9219 5073.7202)">
					</image>
					<g>
						<path class="st12" d="M4354.9,5274.8h-835.3c-10.7,0-19.4-8.7-19.4-19.4v-109.5c0-10.7,8.7-19.4,19.4-19.4h835.3
							c10.7,0,19.4,8.7,19.4,19.4v109.5C4374.3,5266.1,4365.6,5274.8,4354.9,5274.8z"/>
					</g>
				</g>
				<rect x="3529.1" y="5182.4" style="fill:none;" width="772" height="40.4"/>
				<text transform="matrix(1 0 0 1 3529.113 5217.3789)" style="fill:#A6A6A6; font-family:'Avenir-Black'; font-size:46.316px;">Password</text>
			</g>
			<g>
				<g>
					
						<image style="overflow:visible;opacity:0.25;" width="1000" height="275" xlink:href="CA838CE9EC57837C.png"  transform="matrix(1 0 0 1 3447.9219 5452.7202)">
					</image>
					<g>
						<path class="st0" d="M4354.9,5654h-835.3c-10.7,0-19.4-8.7-19.4-19.4v-109.5c0-10.7,8.7-19.4,19.4-19.4h835.3
							c10.7,0,19.4,8.7,19.4,19.4v109.5C4374.3,5645.4,4365.6,5654,4354.9,5654z"/>
					</g>
				</g>
				<rect x="3529.1" y="5561.6" style="fill:none;" width="772" height="40.4"/>
				<text transform="matrix(1 0 0 1 3744.9158 5596.6514)" class="st12" style="font-family:'Avenir-Black'; font-size:46.316px;">Create Account</text>
			</g>
			<rect x="3551.3" y="5949.3" style="fill:none;" width="772" height="40.4"/>
			<text transform="matrix(1 0 0 1 3551.2537 5984.293)"><tspan x="0" y="0" style="font-family:'Avenir-Black'; font-size:46.316px;">Already have an account?</tspan><tspan x="563.5" y="0" class="st0" style="font-family:'Avenir-Black'; font-size:46.316px;"> Log in</tspan></text>
		</g>
	</g>
	<rect x="3602.3" y="5305.8" style="fill:none;" width="772" height="40.4"/>
	<text transform="matrix(1 0 0 1 3972.1868 5340.7812)" class="st0" style="font-family:'Avenir-Black'; font-size:46.316px;">Forgot password?</text>
	<g>
		<g>
			<path class="st1" d="M4036.5,4078.2c0-9.5-1.1-18.7-3.2-27.6c-5.9-12.7-14-24.1-23.9-33.5c-18.1-11.2-39.4-17.3-62-16.4
				c-62.3,2.3-111.1,56.7-108.7,121.4c0.3,9.5,1.8,18.6,4.1,27.4c5.1,10,11.6,19.2,19.3,27.1c17.7,11.9,38.7,18.8,61.3,18.8
				C3985.9,4195.5,4036.5,4143,4036.5,4078.2z"/>
			<path class="st2" d="M4033.4,4050.6c2,8.9,3.2,18.1,3.2,27.6c0,64.8-50.6,117.3-113,117.3c-22.6,0-43.7-7-61.3-18.8
				c19.3,19.8,45.8,32.2,75.1,32.2c58.8,0,106.5-49.6,106.5-110.6C4043.8,4081.2,4040.1,4065.1,4033.4,4050.6z"/>
			<path class="st3" d="M3947.6,4000.7c22.6-0.8,43.9,5.3,62,16.4c-19.1-18.2-44.5-29.4-72.3-29.4c-58.8,0-106.5,49.6-106.5,110.6
				c0,18.4,4.3,35.8,12.1,51.2c-2.3-8.7-3.8-17.9-4.1-27.4C3836.5,4057.4,3885.2,4003.1,3947.6,4000.7z"/>
			<g>
				<g>
					<path class="st13" d="M3903.6,4061.4l-17.3-8.4c-1-0.5-1.6-0.9-2-1.4c-0.4-0.5-0.6-1.1-0.6-1.7c0-0.8,0.2-1.4,0.6-1.8
						c0.4-0.5,1.1-0.8,1.8-0.8c0.2,0,0.6,0.1,1,0.2c0.3,0.1,0.9,0.3,1.5,0.7l20.9,10.1l0.2,0.2c1.9,0.9,2.9,2,2.9,3.3
						s-1,2.3-2.8,3.2c-0.2,0.1-0.3,0.2-0.4,0.2l-20.9,10c-0.6,0.2-1,0.4-1.4,0.6c-0.4,0.1-0.7,0.2-1.1,0.2c-0.7,0-1.3-0.2-1.8-0.7
						c-0.4-0.5-0.6-1.1-0.6-1.8c0-0.7,0.2-1.3,0.6-1.7c0.4-0.5,1.1-0.9,2-1.4L3903.6,4061.4z"/>
				</g>
				<g>
					<path class="st13" d="M3970.9,4061.4l17.2,8.4c1,0.5,1.6,0.9,2,1.4c0.4,0.5,0.6,1.1,0.6,1.7c0,0.8-0.2,1.4-0.6,1.8
						c-0.4,0.5-1.1,0.8-1.8,0.8c-0.2,0-0.6-0.1-1-0.2c-0.3-0.1-0.9-0.3-1.5-0.7l-20.9-10.1l-0.2-0.2c-1.9-0.9-2.9-2-2.9-3.3
						c0-1.3,1-2.3,2.8-3.2c0.2-0.1,0.3-0.2,0.4-0.2l20.9-10c0.6-0.2,1-0.4,1.4-0.6c0.4-0.1,0.7-0.2,1.1-0.2c0.7,0,1.3,0.2,1.8,0.7
						c0.4,0.5,0.6,1.1,0.6,1.8c0,0.7-0.2,1.3-0.6,1.7c-0.4,0.5-1.1,0.9-2,1.4L3970.9,4061.4z"/>
				</g>
			</g>
			<g>
				<g>
					<path d="M3892.8,4129.4h89.1v-11.1c0-1.7,0.5-2.9,1.5-3.9c1-0.9,2.3-1.4,4.1-1.4c1.8,0,3.2,0.4,4.1,1.4c1,0.9,1.5,2.1,1.5,3.7
						v22.9c0,1.8-0.5,3.2-1.4,4.3c-0.9,1.1-2,1.7-3.4,1.7h-102.1c-1.4,0-2.4-0.6-3.4-1.7c-0.9-1.1-1.4-2.5-1.4-4.3v-22.9
						c0-1.6,0.5-2.9,1.5-3.7c1-0.9,2.3-1.4,4.1-1.4c1.8,0,3.2,0.4,4.2,1.4c1.1,0.9,1.5,2.2,1.5,3.9L3892.8,4129.4L3892.8,4129.4z"/>
				</g>
				<g>
					<path class="st5" d="M3937,4177.1c-9.4,0-17.1-8-17.1-17.8v-18.1l5.3,1.1c1.2,0.2,2.8,0.5,4.4,0.7c2.3,0.2,4.8,0.4,7.3,0.4
						c4.2,0,8.5-0.4,11.8-1.2l5.4-1.3v18.4C3954,4169.3,3946.5,4177.1,3937,4177.1z"/>
					<path d="M3949.6,4146.9v12.6c0,7.2-5.6,13.1-12.6,13.1s-12.6-5.9-12.6-13.1V4147c1.5,0.3,3.2,0.6,4.8,0.8
						c2.6,0.3,5.2,0.4,7.7,0.4C3941.2,4148.2,3945.9,4147.7,3949.6,4146.9 M3958.6,4135.4l-10.8,2.4c-2.9,0.7-7,1.1-10.8,1.1
						c-2.3,0-4.5-0.2-6.7-0.4c-1.5-0.2-3-0.4-4-0.7l-10.7-2.2v11.3v12.5c0,12.3,9.7,22.4,21.5,22.4c11.9,0,21.5-10,21.5-22.4v-12.6
						L3958.6,4135.4L3958.6,4135.4L3958.6,4135.4z"/>
				</g>
				<rect x="3892.8" y="4107.8" class="st1" width="89.1" height="26.8"/>
			</g>
		</g>
		<g>
			<path d="M3875.8,3998.7c1.6,0,2.9,0.6,4,1.8c1.1,1.2,1.7,2.6,1.7,4.3c0,1.8-1.9,5.9-5.6,12.7c-2.8,4.8-4.9,8.7-6.5,11.8
				c-6.5,12.1-11.1,23.8-13.9,34.8c-2.8,11.1-4.3,22.5-4.3,34.3c0,10.6,1.1,20.9,3.4,31.1c2.3,10,5.8,20.1,10.5,30.1
				c2.5,5.2,5.9,11.4,10.1,18.8c4.2,7.4,6.3,12,6.3,13.8c0,1.7-0.6,3-1.6,4.1s-2.3,1.7-3.7,1.7c-3.1,0-6.6-1.4-10.7-4.2
				c-4-2.8-8.4-6.9-13.1-12.1c-10.7-12.3-18.8-25.5-24.3-39.5c-5.5-14-8.2-28.6-8.2-43.6c0-13.7,2.3-27,6.7-39.7
				c4.6-12.7,11.4-25,20.3-36.7c5.8-7.5,11.2-13.3,16.2-17.3C3868,4000.7,3872.3,3998.7,3875.8,3998.7z"/>
			<path d="M3993,4004.7c0-1.7,0.6-3,1.7-4.3c1.1-1.2,2.4-1.8,3.9-1.8c3.6,0,7.8,2,12.9,6.1c5.1,4.1,10.6,9.8,16.5,17.3
				c8.9,11.6,15.6,23.7,20.1,36.4c4.5,12.7,6.7,26,6.7,39.9c0,15.2-2.8,29.6-8.2,43.6c-5.4,14-13.6,27.1-24.2,39.5
				c-4.6,5.2-9,9.3-13.1,12.1c-4.2,2.9-7.8,4.3-10.9,4.3c-1.5,0-2.7-0.6-3.7-1.7c-1.1-1.1-1.6-2.5-1.6-4.1c0-1.8,1.9-5.9,5.8-12.5
				c2.8-4.9,5-8.8,6.6-11.8c6.4-12.2,11-23.9,13.8-34.9c2.8-11,4.3-22.5,4.3-34.5c0-10.7-1.1-21.1-3.4-31.2
				c-2.3-10-5.8-20.1-10.5-30.1c-2.6-5.4-6-11.7-10.3-18.9C3995.1,4011,3993,4006.5,3993,4004.7z"/>
		</g>
	</g>
</g>
<g>
	<defs>
		<path id="SVGID_7_" d="M5738,6279.7h-878.5c-68.4,0-123.8-55.4-123.8-123.8V3967.5c0-68.4,55.4-123.8,123.8-123.8H5738
			c68.4,0,123.8,55.4,123.8,123.8V6156C5861.8,6224.3,5806.3,6279.7,5738,6279.7z"/>
	</defs>
	<clipPath id="SVGID_8_">
		<use xlink:href="#SVGID_7_"  style="overflow:visible;"/>
	</clipPath>
	<rect x="4735.8" y="3843.7" class="st14" width="1126" height="2436"/>
	<path class="st15" d="M4685.7,4433.7c99.7-137.1,296.6-32.5,296.6-32.5s229.8,137.1,487.1-120.2
		c257.3-257.3,406.7-103.3,406.7-103.3l35.7,25.1v-359.1H4685.7V4433.7z"/>
	<path class="st15" d="M5911.8,5689.8c-99.7,137.1-296.6,32.5-296.6,32.5s-229.8-137.1-487.1,120.2
		c-257.3,257.3-406.7,103.3-406.7,103.3l-35.7-25.1v359.1h1226.1V5689.8z"/>
	<g class="st16">
		<rect x="4795" y="4712.9" style="fill:none;" width="1007.6" height="132.3"/>
		<text transform="matrix(1 0 0 1 5072.4175 4763.3716)" style="font-family:'SquareFont'; font-size:72px;">Enter a noun</text>
		<g>
			<g>
				<g>
					
						<image style="overflow:visible;opacity:0.25;" width="1000" height="275" xlink:href="CA838CE9EC578378.png"  transform="matrix(1 0 0 1 4808.9219 4870.7202)">
					</image>
					<g>
						<path class="st12" d="M5716.4,5072h-835.3c-10.7,0-19.4-8.7-19.4-19.4v-109.5c0-10.7,8.7-19.4,19.4-19.4h835.3
							c10.7,0,19.4,8.7,19.4,19.4v109.5C5735.8,5063.3,5727.1,5072,5716.4,5072z"/>
					</g>
				</g>
				<rect x="4890.6" y="4979.6" style="fill:none;" width="772" height="40.4"/>
				<text transform="matrix(1 0 0 1 4890.6001 5014.5928)" style="fill:#A6A6A6; font-family:'Avenir-Black'; font-size:46.316px;">Noun</text>
			</g>
			<g>
				<g>
					
						<image style="overflow:visible;opacity:0.25;" width="1000" height="275" xlink:href="CA838CE9EC578366.png"  transform="matrix(1 0 0 1 4808.9219 5074.7202)">
					</image>
					<g>
						<path class="st0" d="M5716.4,5276h-835.3c-10.7,0-19.4-8.7-19.4-19.4v-109.5c0-10.7,8.7-19.4,19.4-19.4h835.3
							c10.7,0,19.4,8.7,19.4,19.4v109.5C5735.8,5267.3,5727.1,5276,5716.4,5276z"/>
					</g>
				</g>
				<rect x="4890.6" y="5183.6" style="fill:none;" width="772" height="40.4"/>
				<text transform="matrix(1 0 0 1 5163.9038 5218.5713)" class="st12" style="font-family:'Avenir-Black'; font-size:46.316px;">Boo - yah!</text>
			</g>
		</g>
	</g>
	<path class="st17" d="M5728.6,5353.4h-859.7c-4,0-7.2-3.2-7.2-7.2l0,0c0-4,3.2-7.2,7.2-7.2h859.7c4,0,7.2,3.2,7.2,7.2l0,0
		C5735.8,5350.2,5732.5,5353.4,5728.6,5353.4z"/>
	<path class="st18" d="M5023,5353.4h-154.1c-4,0-7.2-3.2-7.2-7.2l0,0c0-4,3.2-7.2,7.2-7.2H5023c4,0,7.2,3.2,7.2,7.2l0,0
		C5030.2,5350.2,5027,5353.4,5023,5353.4z"/>
	<rect x="4735.8" y="3843.7" class="st19" width="1126" height="2436"/>
</g>
<g>
	<g>
		<path class="st1" d="M879.8,437.5c0-35.1-4.2-69.2-11.7-102.1c-21.8-47.2-52-89.1-88.5-124.1c-67-41.6-145.9-64.2-229.6-60.8
			c-230.8,8.7-411.4,210-402.7,449.9c1.2,35.1,6.6,68.9,15.2,101.5c18.8,37.2,43.1,71.1,71.5,100.5c65.5,44.1,143.5,69.5,227.2,69.5
			C692.2,871.9,879.8,677.4,879.8,437.5z"/>
		<path class="st2" d="M868.2,335.4c7.5,32.9,11.7,67,11.7,102.1c0,239.9-187.5,434.4-418.6,434.4c-83.7,0-161.8-25.8-227.2-69.5
			c71.5,73.5,169.8,119.2,278.1,119.2c217.7,0,394.7-183.7,394.7-409.6C906.7,448.7,892.9,388.8,868.2,335.4z"/>
		<path class="st3" d="M550.2,150.5c83.7-3.1,162.7,19.5,229.6,60.8C709.2,143.7,615.1,102.4,512,102.4
			c-217.7,0-394.7,183.7-394.7,409.6c0,68.3,16.1,132.8,44.9,189.6c-8.7-32.3-14.1-66.4-15.2-101.5
			C138.6,360.5,319.2,159.2,550.2,150.5z"/>
		<g>
			<g>
				<path class="st4" d="M387.4,375.4l-64-31.3c-3.6-1.9-6-3.4-7.5-5.3s-2.1-4-2.1-6.2c0-2.8,0.9-5.3,2.4-6.8
					c1.5-1.9,3.9-2.8,6.6-2.8c0.9,0,2.1,0.3,3.6,0.6c1.2,0.3,3.3,1.2,5.7,2.5l77.4,37.5l0.9,0.6c7.2,3.4,10.8,7.4,10.8,12.1
					s-3.6,8.4-10.5,11.8c-0.6,0.3-1.2,0.6-1.5,0.9l-77.4,36.9c-2.1,0.9-3.6,1.6-5.1,2.2c-1.5,0.3-2.7,0.6-3.9,0.6
					c-2.7,0-4.8-0.9-6.6-2.5c-1.5-1.9-2.4-4-2.4-6.8c0-2.5,0.6-4.7,2.1-6.2c1.5-1.9,3.9-3.4,7.5-5.3L387.4,375.4z"/>
			</g>
			<g>
				<path class="st4" d="M636.7,375.4l63.7,31.3c3.6,1.9,6,3.4,7.5,5.3s2.1,4,2.1,6.2c0,2.8-0.9,5.3-2.4,6.8
					c-1.5,1.9-3.9,2.8-6.6,2.8c-0.9,0-2.1-0.3-3.6-0.6c-1.2-0.3-3.3-1.2-5.7-2.5l-77.4-37.5l-0.9-0.6c-7.2-3.4-10.8-7.4-10.8-12.1
					s3.6-8.4,10.5-11.8c0.6-0.3,1.2-0.6,1.5-0.9l77.4-36.9c2.1-0.9,3.6-1.6,5.1-2.2c1.5-0.3,2.7-0.6,3.9-0.6c2.7,0,4.8,0.9,6.6,2.5
					c1.5,1.9,2.4,4,2.4,6.8c0,2.5-0.6,4.7-2.1,6.2c-1.5,1.9-3.9,3.4-7.5,5.3L636.7,375.4z"/>
			</g>
		</g>
		<g>
			<g>
				<path d="M347.2,627.1h330.1v-41c0-6.2,1.8-10.9,5.4-14.3s8.7-5,15.2-5c6.6,0,11.7,1.6,15.2,5c3.6,3.4,5.4,7.8,5.4,13.7v84.7
					c0,6.5-1.8,11.8-5.1,15.8s-7.5,6.2-12.6,6.2H322.8c-5.1,0-9-2.2-12.6-6.2c-3.3-4-5.1-9.3-5.1-15.8v-84.7
					c0-5.9,1.8-10.6,5.4-13.7c3.6-3.4,8.7-5,15.2-5c6.6,0,11.7,1.6,15.5,5c3.9,3.4,5.7,8.1,5.7,14.3L347.2,627.1L347.2,627.1z"/>
			</g>
			<g>
				<path class="st5" d="M511.1,804c-35,0-63.4-29.5-63.4-65.8v-67l19.7,4c4.5,0.9,10.2,1.9,16.4,2.5c8.7,0.9,17.9,1.6,26.9,1.6
					c15.5,0,31.4-1.6,43.7-4.3l20-4.7v68.3C574.2,774.8,546.1,804,511.1,804z"/>
				<path d="M557.8,692v46.5c0,26.7-20.9,48.4-46.6,48.4c-25.7,0-46.6-21.7-46.6-48.4v-46.2c5.4,1.2,12,2.2,17.6,2.8
					c9.6,1.2,19.1,1.6,28.7,1.6C526.7,696.9,544,695.1,557.8,692 M591,649.4l-40.1,9c-10.8,2.5-26,4-40.1,4
					c-8.4,0-16.7-0.6-24.8-1.6c-5.7-0.6-11.1-1.6-15-2.5l-39.5-8.1v41.9v46.2c0,45.6,35.9,82.9,79.8,82.9s79.8-37.2,79.8-82.9v-46.5
					v-42.5L591,649.4L591,649.4z"/>
			</g>
			<rect x="347.2" y="547" class="st1" width="330.1" height="99.3"/>
		</g>
	</g>
	<g>
		<path d="M284.2,143c6,0,10.8,2.2,15,6.5c4.2,4.3,6.3,9.6,6.3,15.8c0,6.5-6.9,22-20.9,46.9c-10.2,17.7-18.2,32.3-24.2,43.8
			c-23.9,45-41,88.1-51.4,129.1c-10.5,41-15.8,83.5-15.8,127.2c0,39.4,4.2,77.6,12.6,115.1c8.4,37.2,21.5,74.5,38.9,111.4
			c9.3,19.2,21.8,42.2,37.4,69.8c15.5,27.3,23.3,44.4,23.3,51.2c0,6.2-2.1,11.2-6,15.2s-8.7,6.2-13.8,6.2
			c-11.4,0-24.5-5.3-39.8-15.5c-15-10.2-31.1-25.4-48.4-45c-39.8-45.6-69.7-94.6-90-146.5c-20.3-51.8-30.5-105.8-30.5-161.7
			c0-50.9,8.4-99.9,24.8-147.1c17-47.2,42.2-92.5,75.3-135.9c21.5-27.9,41.6-49.3,60.1-64.2S271.4,143,284.2,143z"/>
		<path d="M718.3,165.1c0-6.2,2.1-11.2,6.3-15.8c4.2-4.3,9-6.5,14.4-6.5c13.2,0,29,7.4,47.8,22.7c18.8,15.2,39.2,36.3,61,64.2
			c32.9,42.8,57.7,87.8,74.5,135c16.7,47.2,24.8,96.5,24.8,147.7c0,56.2-10.2,109.8-30.2,161.7c-20,51.8-50.2,100.5-89.7,146.5
			c-17,19.2-33.2,34.4-48.7,44.7c-15.5,10.6-29,15.8-40.4,15.8c-5.4,0-9.9-2.2-13.8-6.2c-3.9-4-6-9.3-6-15.2c0-6.5,7.2-22,21.5-46.2
			c10.5-18,18.5-32.6,24.5-43.8c23.6-45.3,40.7-88.7,51.1-129.4c10.5-40.6,15.8-83.5,15.8-127.8c0-39.7-4.2-78.2-12.6-115.4
			s-21.5-74.5-38.9-111.4c-9.6-19.9-22.1-43.4-38-70.1C726.3,188.6,718.3,171.9,718.3,165.1z"/>
	</g>
</g>
</svg>
